<?xml version="1.0" encoding="UTF-8"?>
<svg width="1200pt" height="1200pt" version="1.1" viewBox="0 0 1200 1200" xmlns="http://www.w3.org/2000/svg">
 <g fill="#70d258">
  <path d="m1142.2 363.54c-3.6172-1.9688-8.1289-1.3398-11.082 1.5469-0.13281 0.13281-10.051 9.7305-21.488 11.184 15.758-27.797 51.383-98.164 41.852-151.1-0.69531-3.8438-3.6953-6.8516-7.5391-7.5547-52.914-9.7227-123.38 25.695-151.24 41.363 1.4922-11.438 11.117-21.32 11.23-21.441 6.6172-6.1797 0.27344-17.945-8.5234-15.816-50.504 10.445-77.242 44.164-89.297 64.996-6.4492-11.887-14.418-27.18-18.168-34.473-2.2031-4.2852-7.293-6.1875-11.805-4.4141-35.934 14.305-50.082 72.074-55.191 103.29l-26.652-26.738c-2.2969-2.3047-5.625-3.2539-8.7734-2.5117-3.1602 0.74219-5.7188 3.0664-6.75 6.1484l-20.184 60.234c-18.93 56.484 20.324 114.94 44.867 144.26 22.902-18.02 45.336-37.613 66.77-57.73-16.379-45.402-6.7969-90.992-6.3203-93.188 0.94531-4.3125 4.7148-7.1055 8.9531-7.1992-1.9766 10.668-9.2734 59.672 12.469 104.39-48.328 45.91-101.99 90.094-155.18 118.29-8.6055 4.1914-4.9961 18.02 4.3984 17.664 31.828-13.086 60.984-36.469 90.945-58.914 23.531 23.945 97.809 75.844 154.12 54.141l60.301-19.988c3.0859-1.0234 5.418-3.5703 6.168-6.7305 0.75781-3.1602-0.1875-6.4883-2.4766-8.793l-26.652-26.738c31.238-5.0078 89.043-18.957 103.47-54.863 1.8008-4.4805-0.09375-9.5898-4.3789-11.82-7.2852-3.7773-22.547-11.793-34.406-18.281 20.867-11.98 54.684-38.617 65.277-89.09 0.85156-4.0508-1.0586-8.1562-4.6875-10.145zm-164.34 47.867c27.582 3.4219 49.902-3.1875 71.852-11.324 4.293-1.5938 5.7578 2.5234 3.0469 3.7578-24.215 11.082-48.918 20.445-82.492 15.664 2.5391-2.7109 5.1172-5.4375 7.5938-8.1016zm75.422-114.61c1.8281 1.8281-2.0547 7.5273-3.8828 9.3555-10.219 10.191-23.852 25.145-39.477 42.395-0.019532-6.1133 3.2422-15.863 4.9492-25.117 9.6367-10.539 34.762-30.309 38.418-26.645zm-158.56 154.39c32.652-32.148 62.352-64.172 87.066-91.34-0.70312-2.4648-0.30078-55.707 19.07-44.504-1.8945 1.1328-3.4414 2.8672-4.1641 5.1367-7.6016 24.074-6.2539 39.242-4.2266 47.305-26.102 28.707-57.836 63.039-92.84 97.227-1.9297-4.5859-3.5898-9.207-4.9141-13.828z"/>
  <path d="m475.64 874.33c-4.7891-1.8672-10.258 0.53516-12.121 5.3633-4.5664 11.82-15.898 19.613-23.68 23.773-38.832-67.996-122.6-28.473-169.22 61.773-2.6523 4.7891-0.17969 11.344 5.0078 13.145 47.117 18.977 196.11 41.719 170.64-57.133 10.352-5.1758 27.543-16.18 34.742-34.809 1.8672-4.8281-0.53516-10.258-5.3633-12.121z"/>
  <path d="m285.52 205.91c-3.7891-1.7148-8.25-0.75781-10.988 2.3828-14.523 16.742-42.789 14.945-72.664 13.059-53.766-5.457-99.543 2.457-100.63 65.316-14.176 2.6797-28.809-3.5078-35.867-8.1367-4.332-2.832-10.145-1.6133-12.984 2.7109-10.117 17.746 35.551 27.227 49.5 24.262 2.8516 26.203 21.984 42.207 48.852 41.98 49.379 0 128.44-50.953 140.16-131.7 0.58984-4.1172-1.5938-8.1367-5.3711-9.8711z"/>
  <path d="m562.5 656.25c-34.734 0-65.504-20.84-78.383-53.09-1.9219-4.8086 0.42187-10.266 5.2305-12.188s10.266 0.42188 12.188 5.2305c10.023 25.086 33.957 41.297 60.965 41.297 86.867-3.2734 86.98-127.94 0-131.25h-506.25c-5.1758 0-9.375-4.1992-9.375-9.375s4.1992-9.375 9.375-9.375h506.25c111.86 4.6016 111.96 164.1 0 168.75z"/>
  <path d="m369.14 684.38c-28.949 0-54.59-17.371-65.316-44.25-1.9219-4.8086 0.42188-10.266 5.2305-12.18 4.8281-1.9141 10.266 0.42188 12.18 5.2305 7.8672 19.715 26.672 32.445 47.906 32.445 68.211-2.4102 68.25-100.71 0-103.12h-228.52c-5.1758 0-9.375-4.1992-9.375-9.375 0-5.1758 4.1992-9.375 9.375-9.375h228.52c93.18 3.6641 93.215 136.94 0 140.62z"/>
  <path d="m537.89 450h-322.27c-12.148-0.1875-12.469-18.508 0-18.75h322.27c28.434 0 51.562-23.129 51.562-51.562s-23.129-51.562-51.562-51.562c-21.234 0-40.039 12.73-47.906 32.445-4.7617 11.383-21.789 4.5547-17.41-6.9453 29.129-71.289 134.82-50.953 135.63 26.062 0 38.773-31.539 70.312-70.312 70.312z"/>
  <path d="m1044.1 806.25h-322.27c-12.148-0.1875-12.469-18.508 0-18.75h322.27c28.434 0 51.562-23.129 51.562-51.562s-23.129-51.562-51.562-51.562c-21.234 0-40.039 12.73-47.906 32.445-4.7734 11.391-21.777 4.5547-17.41-6.9453 29.129-71.289 134.82-50.953 135.63 26.062 0 38.773-31.539 70.312-70.312 70.312z"/>
  <path d="m590.62 853.12h-46.875c-12.309-0.20703-12.328-18.543 0-18.75h46.875c12.309 0.20703 12.328 18.543 0 18.75z"/>
  <path d="m806.25 975h-46.875c-12.309-0.20703-12.328-18.543 0-18.75h46.875c12.309 0.20703 12.328 18.543 0 18.75z"/>
  <path d="m159.38 450h-28.125c-12.32-0.20703-12.328-18.543 0-18.75h28.125c12.32 0.20703 12.328 18.543 0 18.75z"/>
  <path d="m300 796.88h-140.62c-5.1758 0-9.375-4.1992-9.375-9.375s4.1992-9.375 9.375-9.375h140.62c12.281 0.19531 12.355 18.535 0 18.75z"/>
  <path d="m365.62 796.88h-28.125c-12.32-0.20703-12.328-18.543 0-18.75h28.125c12.32 0.20703 12.328 18.543 0 18.75z"/>
  <path d="m1040.6 871.88h-215.62c-12.254-0.1875-12.375-18.535 0-18.75h215.62c12.254 0.1875 12.375 18.535 0 18.75z"/>
  <path d="m1106.2 871.88h-28.125c-12.32-0.20703-12.328-18.543 0-18.75h28.125c12.32 0.20703 12.328 18.543 0 18.75z"/>
  <path d="m243.75 853.12h-140.62c-5.1758 0-9.375-4.1992-9.375-9.375s4.1992-9.375 9.375-9.375h140.62c12.281 0.19531 12.355 18.535 0 18.75z"/>
  <path d="m1031.2 937.5c-37.086 0.97656-37.078 55.285 0 56.25 37.086-0.97656 37.078-55.285 0-56.25z"/>
  <path d="m628.12 918.75c-49.555 1.5742-49.547 73.434 0 75 49.555-1.5742 49.547-73.434 0-75z"/>
  <path d="m834.38 684.38c-0.20703 12.32-18.543 12.32-18.75 0 0.20703-12.32 18.543-12.32 18.75 0z"/>
  <path d="m459.38 234.38c-0.20703 12.32-18.543 12.32-18.75 0 0.20703-12.32 18.543-12.32 18.75 0z"/>
  <path d="m1115.6 600c-0.20703 12.32-18.543 12.32-18.75 0 0.20703-12.32 18.543-12.32 18.75 0z"/>
  <path d="m946.88 928.12c-0.20703 12.32-18.543 12.32-18.75 0 0.20703-12.32 18.543-12.32 18.75 0z"/>
  <path d="m112.5 956.25c-0.20703 12.32-18.543 12.32-18.75 0 0.20703-12.32 18.543-12.32 18.75 0z"/>
  <path d="m693.75 431.25c-0.20703 12.32-18.543 12.32-18.75 0 0.20703-12.32 18.543-12.32 18.75 0z"/>
  <path d="m712.5 721.88c-0.20703 12.32-18.543 12.32-18.75 0 0.20703-12.32 18.543-12.32 18.75 0z"/>
  <path d="m253.12 721.88c-0.20703 12.32-18.543 12.32-18.75 0 0.20703-12.32 18.543-12.32 18.75 0z"/>
  <path d="m356.25 290.62c-49.555 1.5742-49.547 73.434 0 75 49.555-1.5742 49.547-73.434 0-75z"/>
  <path d="m703.12 253.12c-37.086 0.97656-37.078 55.285 0 56.25 37.086-0.97656 37.078-55.285 0-56.25z"/>
  <path d="m131.25 637.5c-49.555 1.5742-49.547 73.434 0 75 49.555-1.5742 49.547-73.434 0-75z"/>
  <path d="m525 712.5c-37.086 0.97656-37.078 55.285 0 56.25 37.086-0.97656 37.078-55.285 0-56.25z"/>
 </g>
</svg>
